<svg width="40" height="40" viewBox="0 0 40 40" fill="none" xmlns="http://www.w3.org/2000/svg">
<g id="ArrowCircleUpRight" filter="url(#filter0_d_31_88359)">
<g clip-path="url(#clip0_31_88359)">
<rect x="4" width="32" height="32" rx="16" fill="white"/>
<g id="Vector" filter="url(#filter1_i_31_88359)">
<path d="M29.1924 6.80763C27.3743 4.98954 25.0579 3.75141 22.5362 3.24981C20.0144 2.7482 17.4006 3.00564 15.0251 3.98958C12.6497 4.97352 10.6194 6.63976 9.1909 8.7776C7.76244 10.9154 7 13.4289 7 16C7 18.5712 7.76244 21.0846 9.1909 23.2224C10.6194 25.3603 12.6497 27.0265 15.0251 28.0104C17.4006 28.9944 20.0144 29.2518 22.5362 28.7502C25.0579 28.2486 27.3743 27.0105 29.1924 25.1924C31.627 22.7526 32.9943 19.4467 32.9943 16C32.9943 12.5533 31.627 9.24738 29.1924 6.80763ZM22.1213 20.9498C21.9338 21.1373 21.6794 21.2427 21.4142 21.2427C21.149 21.2427 20.8946 21.1373 20.7071 20.9498C20.5196 20.7622 20.4142 20.5079 20.4142 20.2427C20.4142 19.9774 20.5196 19.7231 20.7071 19.5355L23.243 16.9997L14.3431 17.0006C14.2118 17.0006 14.0816 16.9747 13.9603 16.9244C13.8389 16.8741 13.7286 16.8004 13.6356 16.7075C13.5427 16.6146 13.469 16.5043 13.4188 16.3829C13.3685 16.2615 13.3426 16.1314 13.3426 16C13.3426 15.8686 13.3685 15.7385 13.4188 15.6171C13.469 15.4957 13.5427 15.3854 13.6356 15.2925C13.7286 15.1996 13.8389 15.1259 13.9603 15.0756C14.0816 15.0253 14.2118 14.9995 14.3431 14.9995L23.243 15.0003L20.7071 12.4645C20.5196 12.2769 20.4142 12.0226 20.4142 11.7574C20.4142 11.4922 20.5196 11.2378 20.7071 11.0503C20.8946 10.8627 21.149 10.7574 21.4142 10.7574C21.6794 10.7574 21.9338 10.8627 22.1213 11.0503L26.364 15.2929C26.5515 15.4804 26.6569 15.7348 26.6569 16C26.6569 16.2652 26.5515 16.5196 26.364 16.7071L22.1213 20.9498Z" fill="#1F4836"/>
</g>
</g>
</g>
<defs>
<filter id="filter0_d_31_88359" x="0" y="0" width="40" height="40" filterUnits="userSpaceOnUse" color-interpolation-filters="sRGB">
<feFlood flood-opacity="0" result="BackgroundImageFix"/>
<feColorMatrix in="SourceAlpha" type="matrix" values="0 0 0 0 0 0 0 0 0 0 0 0 0 0 0 0 0 0 127 0" result="hardAlpha"/>
<feOffset dy="4"/>
<feGaussianBlur stdDeviation="2"/>
<feComposite in2="hardAlpha" operator="out"/>
<feColorMatrix type="matrix" values="0 0 0 0 0 0 0 0 0 0 0 0 0 0 0 0 0 0 0.1 0"/>
<feBlend mode="normal" in2="BackgroundImageFix" result="effect1_dropShadow_31_88359"/>
<feBlend mode="normal" in="SourceGraphic" in2="effect1_dropShadow_31_88359" result="shape"/>
</filter>
<filter id="filter1_i_31_88359" x="7" y="3" width="25.9944" height="30" filterUnits="userSpaceOnUse" color-interpolation-filters="sRGB">
<feFlood flood-opacity="0" result="BackgroundImageFix"/>
<feBlend mode="normal" in="SourceGraphic" in2="BackgroundImageFix" result="shape"/>
<feColorMatrix in="SourceAlpha" type="matrix" values="0 0 0 0 0 0 0 0 0 0 0 0 0 0 0 0 0 0 127 0" result="hardAlpha"/>
<feOffset dy="4"/>
<feGaussianBlur stdDeviation="2"/>
<feComposite in2="hardAlpha" operator="arithmetic" k2="-1" k3="1"/>
<feColorMatrix type="matrix" values="0 0 0 0 0 0 0 0 0 0 0 0 0 0 0 0 0 0 0.25 0"/>
<feBlend mode="normal" in2="shape" result="effect1_innerShadow_31_88359"/>
</filter>
<clipPath id="clip0_31_88359">
<rect x="4" width="32" height="32" rx="16" fill="white"/>
</clipPath>
</defs>
</svg>
