<svg width="28" height="28" viewBox="0 0 28 28" fill="none" xmlns="http://www.w3.org/2000/svg">
<path d="M7.4 15.8667H22.3333L23.7333 7H6L7.4 15.8667Z" fill="#F05947"/>
<path d="M24.6323 6.15891C24.5092 6.01137 24.3551 5.89269 24.1811 5.81123C24.007 5.72977 23.8172 5.68753 23.625 5.6875H6.34375L5.87672 3.10844C5.78502 2.60441 5.51932 2.14856 5.12596 1.82036C4.7326 1.49215 4.23652 1.31242 3.72422 1.3125H1.75C1.4019 1.3125 1.06806 1.45078 0.821922 1.69692C0.575781 1.94306 0.4375 2.2769 0.4375 2.625C0.4375 2.9731 0.575781 3.30694 0.821922 3.55308C1.06806 3.79922 1.4019 3.9375 1.75 3.9375H3.35891L6.08344 18.9219C6.15659 19.3199 6.30789 19.6994 6.52859 20.0386C6.13785 20.4958 5.87151 21.046 5.75527 21.6361C5.63903 22.2261 5.6768 22.8362 5.86495 23.4075C6.0531 23.9787 6.38528 24.4918 6.82944 24.8973C7.27361 25.3028 7.81477 25.587 8.40073 25.7225C8.9867 25.858 9.59769 25.8403 10.1748 25.6709C10.7519 25.5016 11.2756 25.1864 11.6954 24.7557C12.1153 24.3251 12.417 23.7935 12.5716 23.2123C12.7263 22.6311 12.7285 22.0198 12.5781 21.4375H16.2969C16.1144 22.1442 16.1574 22.8902 16.4199 23.5713C16.6824 24.2523 17.1513 24.8342 17.7608 25.2356C18.3704 25.637 19.0902 25.8378 19.8195 25.8099C20.5489 25.782 21.2512 25.5268 21.8283 25.08C22.4055 24.6332 22.8285 24.0172 23.0382 23.3181C23.2479 22.619 23.2338 21.8718 22.9978 21.1812C22.7619 20.4905 22.316 19.8908 21.7224 19.4661C21.1289 19.0414 20.4174 18.8129 19.6875 18.8125H9.09672C8.99443 18.8124 8.89543 18.7764 8.8169 18.7109C8.73837 18.6453 8.68529 18.5544 8.66688 18.4538L8.41313 17.0625H20.5734C21.2908 17.0625 21.9854 16.8107 22.5361 16.3509C23.0868 15.8912 23.4586 15.2527 23.5867 14.5469L24.9167 7.23406C24.9509 7.04496 24.9432 6.85066 24.894 6.66488C24.8449 6.4791 24.7556 6.30637 24.6323 6.15891ZM10.0625 22.3125C10.0625 22.4856 10.0112 22.6547 9.91504 22.7986C9.81889 22.9425 9.68223 23.0547 9.52235 23.1209C9.36246 23.1871 9.18653 23.2044 9.0168 23.1707C8.84706 23.1369 8.69115 23.0536 8.56878 22.9312C8.44641 22.8088 8.36308 22.6529 8.32931 22.4832C8.29555 22.3135 8.31288 22.1375 8.37911 21.9777C8.44533 21.8178 8.55748 21.6811 8.70138 21.585C8.84527 21.4888 9.01444 21.4375 9.1875 21.4375C9.41957 21.4375 9.64212 21.5297 9.80622 21.6938C9.97031 21.8579 10.0625 22.0804 10.0625 22.3125ZM19.6875 23.1875C19.5144 23.1875 19.3453 23.1362 19.2014 23.04C19.0575 22.9439 18.9453 22.8072 18.8791 22.6473C18.8129 22.4875 18.7956 22.3115 18.8293 22.1418C18.8631 21.9721 18.9464 21.8162 19.0688 21.6938C19.1912 21.5714 19.3471 21.4881 19.5168 21.4543C19.6865 21.4206 19.8625 21.4379 20.0223 21.5041C20.1822 21.5703 20.3189 21.6825 20.415 21.8264C20.5112 21.9703 20.5625 22.1394 20.5625 22.3125C20.5625 22.5446 20.4703 22.7671 20.3062 22.9312C20.1421 23.0953 19.9196 23.1875 19.6875 23.1875ZM21 14.0788C20.9817 14.1788 20.9291 14.2694 20.8512 14.3348C20.7734 14.4003 20.6752 14.4366 20.5734 14.4375H7.93625L6.82281 8.3125H22.0522L21 14.0788Z" fill="white"/>
</svg>
